<svg width="36" height="35" viewBox="0 0 36 35" fill="none" xmlns="http://www.w3.org/2000/svg">
<path d="M33.9041 1.48242H1.77197V32.8196H33.9041V1.48242Z" fill="#2A0034"/>
<path fill-rule="evenodd" clip-rule="evenodd" d="M0.311523 0.0180664V34.2839H35.3647V0.0180664H0.311523ZM1.77208 1.48242H33.9042V32.8195H1.77208V1.48242Z" fill="#EA77FF"/>
<path fill-rule="evenodd" clip-rule="evenodd" d="M9.51265 8.04288C9.51265 7.94038 9.54186 7.86716 9.65871 7.86716C10.5935 7.82323 11.9663 7.79395 13.4123 7.79395C17.4581 7.79395 19.2253 10.0198 19.2253 12.8605C19.2253 16.5801 16.5379 18.1762 13.237 18.1762C12.6821 18.1762 12.4921 18.1469 12.0978 18.1469V23.77C12.0978 23.8872 12.054 23.9457 11.9226 23.9457H9.67331C9.55646 23.9457 9.49805 23.9018 9.49805 23.77V8.04288H9.51265ZM12.0978 15.8186C12.4338 15.8479 12.6967 15.8479 13.2809 15.8479C14.9897 15.8479 16.5963 15.2475 16.5963 12.9192C16.5963 11.0595 15.4571 10.1223 13.4999 10.1223C12.9157 10.1223 12.3607 10.1515 12.0978 10.1662V15.8186ZM21.4453 14.4861C21.4453 14.3103 21.4453 13.8856 21.3723 13.0656C21.3723 12.9485 21.3869 12.9192 21.4892 12.8752C22.38 12.5091 24.4687 11.8648 26.8348 11.8648C26.9516 11.8648 27.01 11.8941 27.01 12.0112V14.1345C27.01 14.2517 26.9662 14.281 26.8494 14.281C25.9292 14.2371 24.6001 14.3543 24.0889 14.5739V23.7994C24.0889 23.9165 24.0451 23.975 23.9136 23.975H21.6205C21.5037 23.975 21.4453 23.931 21.4453 23.7994V14.4861Z" fill="#EA77FF"/>
</svg>
