<svg width="36" height="35" viewBox="0 0 36 35" fill="none" xmlns="http://www.w3.org/2000/svg">
<path d="M33.6159 1.48242H1.48389V32.8196H33.6159V1.48242Z" fill="#001D26"/>
<path fill-rule="evenodd" clip-rule="evenodd" d="M0.0234375 0.0180664V34.2839H35.0766V0.0180664H0.0234375ZM1.48399 1.48242H33.616V32.8195H1.48399V1.48242Z" fill="#00C8FF"/>
<path fill-rule="evenodd" clip-rule="evenodd" d="M8.49463 8.07267C8.49463 7.99946 8.71372 7.92624 8.78674 7.92624C9.73609 7.85303 11.1237 7.85303 12.5842 7.85303C16.6007 7.85303 18.2073 10.0496 18.2073 12.9051C18.2073 16.6391 15.5053 18.2499 12.219 18.2499C11.6349 18.2499 11.4888 18.2499 11.0506 18.2499V23.8876C11.0506 24.0341 10.9776 24.0341 10.9045 24.0341H8.64069C8.49463 24.0341 8.49463 23.9609 8.49463 23.8876V8.07267ZM11.0506 15.8337C11.4157 15.8337 11.6349 15.8337 12.219 15.8337C13.8986 15.8337 15.5053 15.248 15.5053 12.9051C15.5053 11.0746 14.3368 10.1228 12.4381 10.1228C11.8539 10.1228 11.2696 10.1228 11.0506 10.196V15.8337ZM23.6843 14.0765C22.5159 14.0765 22.1508 14.6623 22.1508 15.1748C22.1508 15.6874 22.4428 16.0534 23.9764 16.8588C26.2403 17.9571 26.9705 19.0553 26.9705 20.5929C26.9705 22.9359 25.2179 24.1805 22.808 24.1805C21.5665 24.1805 20.4711 23.8876 19.8138 23.5216C19.7409 23.4484 19.6678 23.3751 19.6678 23.3019V21.1786C19.6678 21.0322 19.7409 20.959 19.8138 21.0322C20.7633 21.6179 21.7857 21.9108 22.735 21.9108C23.9034 21.9108 24.3416 21.3983 24.3416 20.7393C24.3416 20.2269 23.9764 19.7143 22.5159 18.9821C20.4711 17.9571 19.5948 17.0052 19.5948 15.3213C19.5948 13.4176 21.0553 11.88 23.6113 11.88C24.8528 11.88 25.7291 12.0996 26.2403 12.3193C26.3864 12.3925 26.3864 12.539 26.3864 12.6122V14.589C26.3864 14.7355 26.3133 14.8087 26.1673 14.7355C25.583 14.2962 24.6337 14.0765 23.6843 14.0765Z" fill="#00C8FF"/>
</svg>
