<svg width="37" height="33" viewBox="0 0 37 33" fill="none" xmlns="http://www.w3.org/2000/svg">
<path d="M22.8377 0.372559H11.2553C10.4489 0.372559 9.71582 1.03945 9.71582 1.92863V8.30115H22.8377V0.372559Z" fill="#169154"/>
<path d="M9.71582 24.2329V30.6054C9.71582 31.4205 10.3756 32.1615 11.2553 32.1615H22.8377V24.2329H9.71582Z" fill="#18482A"/>
<path d="M22.8377 8.30176H9.71582V16.2304H22.8377V8.30176Z" fill="#0C8045"/>
<path d="M22.8377 16.23H9.71582V24.2327H22.8377V16.23Z" fill="#17472A"/>
<path d="M34.347 0.372559H22.8379V8.30115H35.9597V1.92863C35.8865 1.03945 35.2267 0.372559 34.347 0.372559Z" fill="#29C27F"/>
<path d="M22.8379 24.2323V32.0868H34.4203C35.2267 32.0868 35.9597 31.42 35.9597 30.5307V24.1582L22.8379 24.2323Z" fill="#27663F"/>
<path d="M35.9597 8.30176H22.8379V16.2304H35.9597V8.30176Z" fill="#19AC65"/>
<path d="M35.9597 16.23H22.8379V24.2327H35.9597V16.23Z" fill="#129652"/>
<path d="M16.973 25.0477H2.45832C1.65195 25.0477 0.992188 24.3808 0.992188 23.5657V8.8941C0.992188 8.07901 1.65195 7.41211 2.45832 7.41211H16.973C17.7793 7.41211 18.4391 8.07901 18.4391 8.8941V23.5657C18.4391 24.3808 17.7793 25.0477 16.973 25.0477Z" fill="#0C7238"/>
<path d="M6.05049 11.7837H8.17638L9.86242 15.1181L11.6217 11.7837H13.601L10.8887 16.2297L13.601 20.6755H11.5485L9.71582 17.1929L7.88315 20.6755H5.83057L8.61621 16.2297L6.05049 11.7837Z" fill="white"/>
</svg>
