<svg width="39" height="35" viewBox="0 0 39 35" fill="none" xmlns="http://www.w3.org/2000/svg">
<path d="M36.5276 0.370605H11.9144C10.9857 0.370605 10.2891 1.0739 10.2891 2.01163V8.81016H38.153V2.01163C38.153 1.0739 37.4564 0.370605 36.5276 0.370605Z" fill="#2D92D4"/>
<path d="M10.3662 25.6895V32.4099C10.3662 33.3476 11.0628 34.0508 11.9916 34.0508H36.6047C37.5336 34.0508 38.2302 33.3476 38.2302 32.4099V25.6895H10.3662Z" fill="#2150A9"/>
<path d="M38.1527 8.81006H10.3662V17.2497H38.1527V8.81006Z" fill="#2D83D4"/>
<path d="M38.1527 17.2495H10.3662V25.6891H38.1527V17.2495Z" fill="#2E70C9"/>
<path d="M18.0286 26.5489H2.62612C1.77472 26.5489 1.07812 25.8457 1.07812 24.9861V9.43544C1.07812 8.57586 1.77472 7.87256 2.62612 7.87256H18.0286C18.8801 7.87256 19.5767 8.57586 19.5767 9.43544V24.9861C19.5767 25.8457 18.8801 26.5489 18.0286 26.5489Z" fill="#00488D"/>
<path d="M14.3908 12.561L12.9976 19.3596L11.3722 12.561H9.35984L7.73444 19.5159L6.26384 12.561H4.40625L6.57345 21.9383H8.81804L10.366 14.6709L11.9914 21.9383H14.0812L16.2484 12.561H14.3908Z" fill="white"/>
</svg>
